PathFileType	4	(X/Y/Z)	38_2_52_p0_0-331_filt_butterworth.trc
DataRate	CameraRate	NumFrames	NumMarkers	Units	OrigDataRate	OrigDataStartFrame	OrigNumFrames
60.0	60.0	6	27	m	60.0	165	331
Frame#	Time	RHip			RKnee			RAnkle			RBigToe			RSmallToe			RHeel			LHip			LKnee			LAnkle			LBigToe			LSmallToe			LHeel			Neck			Head			Nose			RShoulder			RElbow			RWrist			RThumb			RIndex			RPinky			LShoulder			LElbow			LWrist			LThumb			LIndex			LPinky			
		X1	Y1	Z1	X2	Y2	Z2	X3	Y3	Z3	X4	Y4	Z4	X5	Y5	Z5	X6	Y6	Z6	X7	Y7	Z7	X8	Y8	Z8	X9	Y9	Z9	X10	Y10	Z10	X11	Y11	Z11	X12	Y12	Z12	X13	Y13	Z13	X14	Y14	Z14	X15	Y15	Z15	X16	Y16	Z16	X17	Y17	Z17	X18	Y18	Z18	X19	Y19	Z19	X20	Y20	Z20	X21	Y21	Z21	X22	Y22	Z22	X23	Y23	Z23	X24	Y24	Z24	X25	Y25	Z25	X26	Y26	Z26	X27	Y27	Z27	
165	2.75	0.39132745750636966	0.7096769276420918	0.5337871835334366	0.3968870475583828	0.9094861917523881	0.9623082078257625	0.35923577812028623	1.0774423442919276	1.370045018856558	0.31618197961922795	0.8758103726612316	1.4335378582949876	0.3792930837188282	0.8878658893874398	1.4336909002279785	0.35232586955007894	1.1618181837092436	1.4054520945440987	0.1813912077368421	0.7278001790774934	0.5277524600358005	0.18079786042916646	0.9260801733588478	0.9516177531247626	0.19229676236216672	1.0686498647662288	1.3318192663800412	0.17160478319230976	0.8997043647357237	1.4176169338488993	0.11893780663023634	0.9515633858166614	1.409272875577215	0.21330807441575178	1.1669723231888223	1.4038745084913866	0.28588530123671463	0.5619599210297892	-0.08992280540548192	0.2783187275668763	0.4561894291897576	-0.3329104818537264	0.26960664192282885	0.3976937877613206	-0.1714680708823511	0.46483044124419093	0.6290597242732417	-0.006144127383107445	0.5101136363097956	0.5604765876486029	0.2531147676957073	0.3660427089026571	0.3664838420700468	0.12700563538331947	0.29854714129648197	0.2713338029631518	0.053567390184461605	0.2969805848845385	0.2599162126575582	0.054726910949673274	0.29069675445414217	0.2716874608462689	0.11026287536948928	0.122231048476134	0.6375757176581488	-0.021039787232655437	0.06019028458297408	0.6447670502851667	0.22267277326527699	0.06995795826874161	0.44863628794027266	0.3858260550251758	0.1138347275658174	0.2965600113868402	0.43757604417114204	0.09777000922624947	0.24737032609293536	0.4561798861897232	0.1048817710847548	0.35780928642418347	0.5010360718348971
166	2.7666666666666666	0.3913077689315434	0.7098260161686102	0.5338776455534858	0.39686369414655254	0.9097170611884537	0.962413741696929	0.35923412567445645	1.0773977447904588	1.3700678455165258	0.3158974801055917	0.8749906385151385	1.4337295239198056	0.38002784090128905	0.8884410435799547	1.4339225213210678	0.3517733362140268	1.1617539882051056	1.4086457733491522	0.1813387764644937	0.7278058529986839	0.5278044054006907	0.18071655461338337	0.9260692035038414	0.9516850890452563	0.19256546907345515	1.0693664599951131	1.3328266231100123	0.17158536152452877	0.8997592703023851	1.4176304323455415	0.11890404466611704	0.9516338539608573	1.4104149690724825	0.21343629449939022	1.1676849395271796	1.404123084267155	0.2858193044251427	0.5617923150769376	-0.09081181611934264	0.2789851823035825	0.45260080063802977	-0.3327522684824201	0.2694183837072188	0.3989635565048259	-0.17317711843851843	0.4647608187583485	0.6296413669534462	-0.006993909223924133	0.5105089403703513	0.5539467594789329	0.24982081044539084	0.36938199621456985	0.36581985235810194	0.1251170121964586	0.301712397048948	0.2722399118477227	0.050069884998125834	0.30045289639004474	0.26201699419973723	0.04939324040337921	0.2938008651397629	0.2729035662787164	0.10771616723241793	0.12268243618877141	0.6387658812342093	-0.021217484903964762	0.060165972067095896	0.6448403434266633	0.22298174198576687	0.069225648185132	0.449881604135941	0.3858387102435885	0.11085748129925334	0.2968135554762277	0.43661647163130873	0.09548729486436838	0.2527574502946975	0.45524406465441536	0.1044424796933011	0.3583523029672045	0.5011875025687604
167	2.783333333333333	0.39127943066048054	0.7099538076361098	0.5340202853973038	0.3968061710476675	0.9102235510707521	0.9629889874008222	0.3592308962085969	1.077431091686204	1.3700981216001555	0.3161014408910253	0.8754232900371041	1.4338623859720554	0.3815503700504182	0.8893492620402443	1.4342954951627553	0.3510745569687651	1.1614328041112918	1.4110944618171766	0.18123831226728707	0.7278807523161064	0.5278496431129224	0.18062756133005642	0.9259914156344675	0.9517088152454513	0.1929060107838902	1.0697306815685201	1.3336298000257085	0.17158763572307206	0.8998147798954145	1.417661804801956	0.11884844099453087	0.9516715847145848	1.4119592207714071	0.2133905241919341	1.1678108320637444	1.4039873798622378	0.2856954095264871	0.5616655921028095	-0.09265986453373175	0.2798150500545852	0.44785702386164494	-0.33256967628915957	0.26881400358886937	0.4016242967277799	-0.17584525303652004	0.4646527551892058	0.6281931499787186	-0.007215865066739231	0.5108193645523716	0.5489153231782089	0.24819367644426688	0.3721054503143237	0.3673719741461487	0.12258098059215099	0.3065777096512475	0.2752556668689604	0.04362650509496782	0.3045183580092347	0.2647575486809767	0.04184445808998019	0.2965032067793321	0.27509414155941375	0.10328794700398217	0.12268145916448298	0.6386784993954011	-0.021189240781399766	0.06009184514950057	0.6449717362274747	0.22393824679282762	0.06919890284920624	0.4500569481950033	0.38620642972378494	0.10776953129457524	0.29778495526707205	0.4354980626046043	0.09177121472764728	0.25875249796986527	0.4537530588338723	0.10384080885633815	0.3597209266077892	0.5011558766738556
168	2.8	0.39124714232321267	0.7100139182178089	0.5341922861323185	0.3966679136466568	0.9108657197558374	0.9642571804947954	0.35922565113315313	1.077529326982065	1.3701335164193862	0.31632004360598	0.8759807396051861	1.4339422940168405	0.3834122003344874	0.8902686948241372	1.4346827524930483	0.3506251795221052	1.1613738887498484	1.4121251790055498	0.1811273688890348	0.7279885335755925	0.5278654675109513	0.18053195229670735	0.9259221931851576	0.9516986941906307	0.1932224367393079	1.0695791724938435	1.3343888776570627	0.1715948237857396	0.8998555716100685	1.4177034117484197	0.11871397631980533	0.9517687620534	1.4131343765253799	0.21333283458124278	1.1675661636278958	1.4036698022252465	0.2855785241177021	0.5616133807914886	-0.09455778577802919	0.2804601506040539	0.44416013818771544	-0.3324228980994564	0.26807338105040734	0.40499038170083684	-0.178905581217312	0.4639052255300409	0.6273994245961035	-0.007031488751763408	0.5107081980492704	0.5482800302110804	0.24814269741090048	0.3733955012116697	0.3689809808959003	0.11933214893429007	0.3122110834353428	0.2805737160322788	0.03499629354911155	0.30802293934807545	0.2662519297118862	0.03403398924876569	0.29863600319665207	0.27590263588938585	0.09656053967892035	0.1225682097481903	0.6382856466728051	-0.021212461368324696	0.05999803264086556	0.6451439722390268	0.2255301218987377	0.06936100012870053	0.4499492789377964	0.3871030601894974	0.10518406432675007	0.2990157912393449	0.4346488494913257	0.08797822634024927	0.26361409775650235	0.451814071368837	0.10325266684303155	0.3623442038261959	0.5006888614311396
169	2.816666666666667	0.39121932270354476	0.7100369063639246	0.5343257130546923	0.39642312151707976	0.9113521008477812	0.9658725085126187	0.35921722259784966	1.0776162726506229	1.3701625813827325	0.3163840741515088	0.8761714854939018	1.4339539339767613	0.38474647394563927	0.8906977029367671	1.4348853658334206	0.3507072436821838	1.1630185408899512	1.4121847481442942	0.18106032732422725	0.7281387508983077	0.5279536999968792	0.18043784379756445	0.9258968421857957	0.9516737725142412	0.1932517357335612	1.0689390893641697	1.3351033701547983	0.1716007396329666	0.899849644324306	1.4177354571689307	0.1184459792766259	0.9520516430267602	1.4135915586163708	0.2133069826157631	1.1673235911085904	1.4034280015653144	0.28552565806861874	0.5616124732705327	-0.09570045290264906	0.2807113574963567	0.44290400102918215	-0.3326840130780916	0.2675291464832847	0.40734374454873545	-0.18189460717794775	0.4622571724224723	0.6274042991522716	-0.006839888432770697	0.5099690211976162	0.5524614456122863	0.24901973146823836	0.37342896728421976	0.36929651548073694	0.11576197630715435	0.31725615029962506	0.28671920752584185	0.02528756565946027	0.31071157302020547	0.2661153828589402	0.026465413117180224	0.30148821070477283	0.2762140008048754	0.08881499693675932	0.12250508298602265	0.6381125324971888	-0.021562767691233987	0.05994133768821086	0.6452910308132376	0.227374187458245	0.06946865873246026	0.4498915793840326	0.38825828924444555	0.10360683832820244	0.29966233082753246	0.4342843405678056	0.08558791934341768	0.26661989102175476	0.450111027804459	0.10266292343416099	0.3654230277053847	0.49962046275950966
170	2.833333333333333	0.3911960238908768	0.7100515264115851	0.5343954154492089	0.3961326613457208	0.9115509139377203	0.9671181629636537	0.359201740155521	1.077634746094441	1.3701750644378445	0.3163402770969557	0.8759949594805992	1.433879821744269	0.3851848031439181	0.8904723652912732	1.4348296180403735	0.3511401193221355	1.1676353245810647	1.4118807355957053	0.18108793494465028	0.7284809606966769	0.5284144395882651	0.18036645393666437	0.925933538157786	0.9516642116778875	0.1929080613284394	1.068138577776398	1.3355922649609426	0.17161066457499868	0.8997970343659419	1.4177464817627938	0.11813444204010286	0.9523676826656214	1.413572901625659	0.21328545914756544	1.1672767535948179	1.4034113362661416	0.28552979550869295	0.5616234808059821	-0.09602680446946647	0.28052314004066387	0.4442044490375947	-0.3338222990435554	0.2672514873478082	0.4083022888931804	-0.18458663990196822	0.460279931744274	0.6266448948409497	-0.0067426244576252545	0.508604513195128	0.5587492975529972	0.25017774265601683	0.37296721731006927	0.3685900288512119	0.11208629574363815	0.32112003753392365	0.29271172682234453	0.015332838559486167	0.31324221839549227	0.2656533375020139	0.01856496226407073	0.3062148409422124	0.2776852589869317	0.0813739796654907	0.1225173048608435	0.6382537941288327	-0.022306353601752225	0.059935407967861884	0.6453718832382952	0.2289793970919909	0.06949063363993208	0.44990314089768324	0.3891166478764548	0.1030186197748942	0.29921405204517115	0.43426031612792704	0.08485550561605981	0.2678734545016182	0.44909380558655193	0.10217343578903051	0.36750902537457464	0.49824653811994785
